<?xml version="1.0" encoding="UTF-8" standalone="no" ?>
<!DOCTYPE svg PUBLIC "-//W3C//DTD SVG 1.1//EN" "http://www.w3.org/Graphics/SVG/1.1/DTD/svg11.dtd">
<svg xmlns="http://www.w3.org/2000/svg" version="1.1" width="540.0000000000001" height="540.0000000000001"
	 viewBox="0 0 1080 1080" xml:space="preserve">
<desc>Created with Fabric.js 3.6.3</desc>
<defs>
</defs>
<g transform="matrix(6.43 0 0 6.43 0.9 387.6)"  >
<line style="stroke: rgb(0,0,0); stroke-width: 2; stroke-dasharray: none; stroke-linecap: butt; stroke-dashoffset: 0; stroke-linejoin: miter; stroke-miterlimit: 4; fill: rgb(0,0,0); fill-rule: nonzero; opacity: 1;" vector-effect="non-scaling-stroke"  x1="0" y1="0" x2="0" y2="0" />
</g>
<g transform="matrix(6.43 0 0 6.43 13.76 387.6)"  >
<line style="stroke: rgb(0,0,0); stroke-width: 2; stroke-dasharray: none; stroke-linecap: butt; stroke-dashoffset: 0; stroke-linejoin: miter; stroke-miterlimit: 4; fill: rgb(0,0,0); fill-rule: nonzero; opacity: 1;" vector-effect="non-scaling-stroke"  x1="0" y1="0" x2="0" y2="0" />
</g>
<g transform="matrix(1.04 0 0 1.04 527.25 539.16)"  >
<g style=""   >
		<g transform="matrix(6.43 0 0 6.43 -57.87 -122.17)"  >
<line style="stroke: rgb(0,0,0); stroke-width: 2; stroke-dasharray: none; stroke-linecap: butt; stroke-dashoffset: 0; stroke-linejoin: miter; stroke-miterlimit: 4; fill: rgb(0,0,0); fill-rule: nonzero; opacity: 1;" vector-effect="non-scaling-stroke"  x1="0" y1="0" x2="0" y2="0" />
</g>
		<g transform="matrix(6.43 0 0 6.43 180.04 -218.62)"  >
<line style="stroke: rgb(0,0,0); stroke-width: 2; stroke-dasharray: none; stroke-linecap: butt; stroke-dashoffset: 0; stroke-linejoin: miter; stroke-miterlimit: 4; fill: rgb(0,0,0); fill-rule: nonzero; opacity: 1;" vector-effect="non-scaling-stroke"  x1="0" y1="0" x2="0" y2="0" />
</g>
		<g transform="matrix(2.25 0 0 2.25 0 0)"  >
<path style="stroke: none; stroke-width: 1; stroke-dasharray: none; stroke-linecap: butt; stroke-dashoffset: 0; stroke-linejoin: miter; stroke-miterlimit: 4; fill: rgb(255,255,255); fill-rule: nonzero; opacity: 1;"  transform=" translate(-228.74, -228.74)" d="m 423.173 110.709 l -189.434 -109.369 c -3.094 -1.786 -6.906 -1.786 -10 0 l -189.433 109.369 c -3.094 1.786 -5 5.087 -5 8.66 l 0 218.739 c 0 3.573 1.906 6.874 5 8.66 l 189.434 109.37 c 1.547 0.893 3.273 1.34 5 1.34 s 3.453 -0.447 5 -1.34 l 189.434 -109.37 c 3.094 -1.786 5 -5.087 5 -8.66 l 0 -218.739 c -0.001 -3.572 -1.908 -6.874 -5.001 -8.66 z m -15 206.884 l -6.459 -3.729 c -4.781 -2.762 -10.898 -1.123 -13.66 3.66 c -2.762 4.783 -1.123 10.899 3.66 13.661 l 9.226 5.327 l -162.201 93.647 l 0 -188.638 c 0.128 0.005 0.255 0.024 0.383 0.024 c 3.456 0 6.817 -1.793 8.67 -5.001 c 1.421 -2.46 1.669 -5.271 0.932 -7.799 l 159.449 -92.058 l 0 180.906 z m -338.747 -0.069 c -2.761 -4.782 -8.874 -6.422 -13.66 -3.66 l -6.46 3.729 l 0 -180.905 l 159.449 92.058 c -0.737 2.527 -0.488 5.338 0.932 7.798 c 1.853 3.208 5.213 5.001 8.67 5.001 c 0.127 0 0.255 -0.02 0.383 -0.024 l 0 188.637 l -162.202 -93.647 l 9.227 -5.327 c 4.784 -2.761 6.422 -8.877 3.661 -13.66 z m 159.314 -275.941 c 5.522 0 10 -4.477 10 -10 l 0 -4.263 l 159.431 92.048 l -159.634 92.165 c -0.931 -4.559 -4.964 -7.989 -9.797 -7.989 c -4.834 0 -8.867 3.43 -9.798 7.99 l -159.635 -92.166 l 159.433 -92.048 l 0 4.264 c 0 5.522 4.478 9.999 10 9.999 z" stroke-linecap="round" />
</g>
		<g transform="matrix(2.25 0 0 2.25 200.56 108.61)"  >
<path style="stroke: none; stroke-width: 1; stroke-dasharray: none; stroke-linecap: butt; stroke-dashoffset: 0; stroke-linejoin: miter; stroke-miterlimit: 4; fill: rgb(255,255,255); fill-rule: nonzero; opacity: 1;"  transform=" translate(-317.92, -277.03)" d="m 304.003 280.544 l 17.839 10.3 c 1.575 0.909 3.294 1.341 4.99 1.341 c 3.456 0 6.817 -1.793 8.67 -5.001 c 2.762 -4.783 1.123 -10.898 -3.66 -13.66 l -17.839 -10.3 c -4.784 -2.761 -10.898 -1.123 -13.66 3.66 s -1.123 10.898 3.66 13.66 z" stroke-linecap="round" />
</g>
		<g transform="matrix(2.25 0 0 2.25 101.93 51.66)"  >
<path style="stroke: none; stroke-width: 1; stroke-dasharray: none; stroke-linecap: butt; stroke-dashoffset: 0; stroke-linejoin: miter; stroke-miterlimit: 4; fill: rgb(255,255,255); fill-rule: nonzero; opacity: 1;"  transform=" translate(-274.07, -251.71)" d="m 260.147 255.224 l 17.84 10.299 c 1.575 0.91 3.294 1.341 4.99 1.341 c 3.456 0 6.818 -1.793 8.67 -5.001 c 2.762 -4.783 1.123 -10.899 -3.66 -13.66 l -17.84 -10.299 c -4.784 -2.763 -10.899 -1.123 -13.66 3.66 c -2.762 4.783 -1.123 10.899 3.66 13.66 z" stroke-linecap="round" />
</g>
		<g transform="matrix(2.25 0 0 2.25 299.18 165.55)"  >
<path style="stroke: none; stroke-width: 1; stroke-dasharray: none; stroke-linecap: butt; stroke-dashoffset: 0; stroke-linejoin: miter; stroke-miterlimit: 4; fill: rgb(255,255,255); fill-rule: nonzero; opacity: 1;"  transform=" translate(-361.78, -302.35)" d="m 347.857 305.864 l 17.84 10.3 c 1.575 0.909 3.294 1.341 4.99 1.341 c 3.456 0 6.818 -1.793 8.67 -5.001 c 2.762 -4.783 1.123 -10.899 -3.66 -13.66 l -17.84 -10.3 c -4.784 -2.762 -10.9 -1.123 -13.66 3.66 c -2.762 4.783 -1.123 10.899 3.66 13.66 z" stroke-linecap="round" />
</g>
		<g transform="matrix(2.25 0 0 2.25 -101.94 51.67)"  >
<path style="stroke: none; stroke-width: 1; stroke-dasharray: none; stroke-linecap: butt; stroke-dashoffset: 0; stroke-linejoin: miter; stroke-miterlimit: 4; fill: rgb(255,255,255); fill-rule: nonzero; opacity: 1;"  transform=" translate(-183.41, -251.71)" d="m 174.501 266.865 c 1.696 0 3.416 -0.432 4.99 -1.341 l 17.84 -10.3 c 4.783 -2.761 6.422 -8.877 3.66 -13.66 c -2.761 -4.783 -8.877 -6.421 -13.66 -3.66 l -17.84 10.3 c -4.783 2.761 -6.422 8.877 -3.66 13.66 c 1.852 3.209 5.213 5.001 8.67 5.001 z" stroke-linecap="round" />
</g>
		<g transform="matrix(2.25 0 0 2.25 -299.19 165.55)"  >
<path style="stroke: none; stroke-width: 1; stroke-dasharray: none; stroke-linecap: butt; stroke-dashoffset: 0; stroke-linejoin: miter; stroke-miterlimit: 4; fill: rgb(255,255,255); fill-rule: nonzero; opacity: 1;"  transform=" translate(-95.7, -302.35)" d="m 86.791 317.505 c 1.696 0 3.415 -0.432 4.99 -1.341 l 17.84 -10.299 c 4.783 -2.761 6.422 -8.877 3.66 -13.66 c -2.76 -4.782 -8.874 -6.421 -13.66 -3.66 l -17.84 10.299 c -4.783 2.761 -6.422 8.877 -3.66 13.66 c 1.852 3.208 5.213 5.001 8.67 5.001 z" stroke-linecap="round" />
</g>
		<g transform="matrix(2.25 0 0 2.25 -200.56 108.61)"  >
<path style="stroke: none; stroke-width: 1; stroke-dasharray: none; stroke-linecap: butt; stroke-dashoffset: 0; stroke-linejoin: miter; stroke-miterlimit: 4; fill: rgb(255,255,255); fill-rule: nonzero; opacity: 1;"  transform=" translate(-139.56, -277.03)" d="m 130.646 292.185 c 1.696 0 3.416 -0.432 4.99 -1.341 l 17.839 -10.3 c 4.783 -2.762 6.422 -8.877 3.66 -13.66 c -2.761 -4.783 -8.877 -6.421 -13.66 -3.66 l -17.839 10.3 c -4.783 2.762 -6.422 8.877 -3.66 13.66 c 1.853 3.208 5.213 5.001 8.67 5.001 z" stroke-linecap="round" />
</g>
		<g transform="matrix(2.25 0 0 2.25 0 -352.66)"  >
<path style="stroke: none; stroke-width: 1; stroke-dasharray: none; stroke-linecap: butt; stroke-dashoffset: 0; stroke-linejoin: miter; stroke-miterlimit: 4; fill: rgb(255,255,255); fill-rule: nonzero; opacity: 1;"  transform=" translate(-228.74, -71.92)" d="m 218.74 82.223 c 0 5.523 4.478 10 10 10 s 10 -4.477 10 -10 l 0 -20.599 c 0 -5.523 -4.478 -10 -10 -10 s -10 4.477 -10 10 l 0 20.599 z" stroke-linecap="round" />
</g>
		<g transform="matrix(2.25 0 0 2.25 0 -238.77)"  >
<path style="stroke: none; stroke-width: 1; stroke-dasharray: none; stroke-linecap: butt; stroke-dashoffset: 0; stroke-linejoin: miter; stroke-miterlimit: 4; fill: rgb(255,255,255); fill-rule: nonzero; opacity: 1;"  transform=" translate(-228.74, -122.56)" d="m 228.74 102.264 c -5.522 0 -10 4.477 -10 10 l 0 20.599 c 0 5.523 4.478 10 10 10 s 10 -4.477 10 -10 l 0 -20.599 c 0 -5.523 -4.477 -10 -10 -10 z" stroke-linecap="round" />
</g>
		<g transform="matrix(2.25 0 0 2.25 0 -124.89)"  >
<path style="stroke: none; stroke-width: 1; stroke-dasharray: none; stroke-linecap: butt; stroke-dashoffset: 0; stroke-linejoin: miter; stroke-miterlimit: 4; fill: rgb(255,255,255); fill-rule: nonzero; opacity: 1;"  transform=" translate(-228.74, -173.2)" d="m 228.74 152.904 c -5.522 0 -10 4.477 -10 10 l 0 20.599 c 0 5.523 4.478 10 10 10 s 10 -4.477 10 -10 l 0 -20.599 c 0 -5.523 -4.477 -10 -10 -10 z" stroke-linecap="round" />
</g>
</g>
</g>
</svg>