<?xml version="1.0" encoding="UTF-8" standalone="no" ?>
<!DOCTYPE svg PUBLIC "-//W3C//DTD SVG 1.1//EN" "http://www.w3.org/Graphics/SVG/1.1/DTD/svg11.dtd">
<svg xmlns="http://www.w3.org/2000/svg" version="1.1" width="1359.83094" height="1080"
     viewBox="-6.5 46.28349977093475 513 407.4330004581305" xml:space="preserve">
<desc>Created with Fabric.js 4.6.0</desc>
<defs>
</defs>
<g transform="matrix(1 0 0 1 243 240.5)" id="Y6BYzpLaiBQ28ev8YA-RN"  >
<path style="stroke: none; stroke-width: 1; stroke-dasharray: none; stroke-linecap: butt; stroke-dashoffset: 0; stroke-linejoin: miter; stroke-miterlimit: 4; fill: rgb(255,255,255); fill-rule: nonzero; opacity: 1;" vector-effect="non-scaling-stroke"  transform=" translate(-9, -6.5)" d="M 15 10 L 15 3 L 4 3 C 3.4 3 3 3.4 3 4 L 3 10 L 10 10 L 15 10 z" stroke-linecap="round" />
</g>
<g transform="matrix(1 0 0 1 257 240.5)" id="4-V9zhZgxB14EomsgqgwZ"  >
<path style="stroke: none; stroke-width: 1; stroke-dasharray: none; stroke-linecap: butt; stroke-dashoffset: 0; stroke-linejoin: miter; stroke-miterlimit: 4; fill: rgb(255,255,255); fill-rule: nonzero; opacity: 1;" vector-effect="non-scaling-stroke"  transform=" translate(-23, -6.5)" d="M 22 10 L 29 10 L 29 4 C 29 3.4 28.6 3 28 3 L 17 3 L 17 10 L 22 10 z" stroke-linecap="round" />
</g>
<g transform="matrix(1 0 0 1 250 250)" id="nImrBqNQ6h7uQR9iAm3FP"  >
<path style="stroke: none; stroke-width: 1; stroke-dasharray: none; stroke-linecap: butt; stroke-dashoffset: 0; stroke-linejoin: miter; stroke-miterlimit: 4; fill: rgb(255,255,255); fill-rule: nonzero; opacity: 1;" vector-effect="non-scaling-stroke"  transform=" translate(-16, -16)" d="M 11 12 L 11 20 L 16 20 L 21 20 L 21 12 L 16 12 z" stroke-linecap="round" />
</g>
<g transform="matrix(1 0 0 1 240 250)" id="oNQ7zAFQhKaRyVcVFKUqd"  >
<path style="stroke: none; stroke-width: 1; stroke-dasharray: none; stroke-linecap: butt; stroke-dashoffset: 0; stroke-linejoin: miter; stroke-miterlimit: 4; fill: rgb(255,255,255); fill-rule: nonzero; opacity: 1;" vector-effect="non-scaling-stroke"  transform=" translate(-3, -4)" d="M 0 8 L 0 0 L 6 0 L 6 8 z" stroke-linecap="round" />
</g>
<g transform="matrix(1 0 0 1 260 250)" id="ecGMLK3fKM6R269RGdASH"  >
<path style="stroke: none; stroke-width: 1; stroke-dasharray: none; stroke-linecap: butt; stroke-dashoffset: 0; stroke-linejoin: miter; stroke-miterlimit: 4; fill: rgb(255,255,255); fill-rule: nonzero; opacity: 1;" vector-effect="non-scaling-stroke"  transform=" translate(-3, -4)" d="M 0 8 L 0 0 L 6 0 L 6 8 z" stroke-linecap="round" />
</g>
<g transform="matrix(1 0 0 1 243 259.5)" id="85pvhkFUh9JihYEFyXnHZ"  >
<path style="stroke: none; stroke-width: 1; stroke-dasharray: none; stroke-linecap: butt; stroke-dashoffset: 0; stroke-linejoin: miter; stroke-miterlimit: 4; fill: rgb(255,255,255); fill-rule: nonzero; opacity: 1;" vector-effect="non-scaling-stroke"  transform=" translate(-9, -25.5)" d="M 10 22 L 3 22 L 3 28 C 3 28.6 3.4 29 4 29 L 15 29 L 15 22 L 10 22 z" stroke-linecap="round" />
</g>
<g transform="matrix(1 0 0 1 257 259.5)" id="o5muz7WhWt9o1Akf-JC3_"  >
<path style="stroke: none; stroke-width: 1; stroke-dasharray: none; stroke-linecap: butt; stroke-dashoffset: 0; stroke-linejoin: miter; stroke-miterlimit: 4; fill: rgb(255,255,255); fill-rule: nonzero; opacity: 1;" vector-effect="non-scaling-stroke"  transform=" translate(-23, -25.5)" d="M 17 22 L 17 29 L 28 29 C 28.6 29 29 28.6 29 28 L 29 22 L 22 22 L 17 22 z" stroke-linecap="round" />
</g>
<g transform="matrix(1 0 0 1 250 250)" id="9wJne6gVCn7eTh6iZ_4YX"  >
<path style="stroke: none; stroke-width: 1; stroke-dasharray: none; stroke-linecap: butt; stroke-dashoffset: 0; stroke-linejoin: miter; stroke-miterlimit: 4; fill: rgb(255,255,255); fill-rule: nonzero; opacity: 1;" vector-effect="non-scaling-stroke"  transform=" translate(-256, -256)" d="M 0 52.784 L 0 459.217 L 512 459.217 L 512 52.784 L 0 52.784 z M 496.165 443.381 L 15.835 443.381 L 15.835 381.698 L 219.18200000000002 249.52299999999997 L 319.962 311.104 L 496.16499999999996 418.78999999999996 L 496.16499999999996 443.381 z M 496.165 400.233 L 336.9 302.905 L 399.37699999999995 244.89 L 496.16499999999996 307.803 L 496.16499999999996 400.233 z M 496.165 288.916 L 397.653 224.88299999999998 L 322.865 294.328 L 218.921 230.80599999999998 L 15.835 362.813 L 15.835 68.619 L 496.16499999999996 68.619 L 496.16499999999996 288.916 z" stroke-linecap="round" />
</g>
<g transform="matrix(1 0 0 1 300.14 152.35)" id="fHqc3gsQHMR0OZcXKuiAR"  >
<path style="stroke: none; stroke-width: 1; stroke-dasharray: none; stroke-linecap: butt; stroke-dashoffset: 0; stroke-linejoin: miter; stroke-miterlimit: 4; fill: rgb(255,255,255); fill-rule: nonzero; opacity: 1;" vector-effect="non-scaling-stroke"  transform=" translate(-306.14, -158.35)" d="M 306.144 95.01 C 271.218 95.01 242.804 123.424 242.804 158.35000000000002 C 242.804 193.27600000000004 271.218 221.69000000000003 306.144 221.69000000000003 C 341.07 221.69000000000003 369.48400000000004 193.276 369.48400000000004 158.35000000000002 C 369.48400000000004 123.42400000000004 341.07 95.01 306.144 95.01 z M 306.144 205.856 C 279.95 205.856 258.639 184.545 258.639 158.351 C 258.639 132.157 279.95 110.846 306.144 110.846 C 332.338 110.846 353.649 132.157 353.649 158.351 C 353.649 184.545 332.339 205.856 306.144 205.856 z" stroke-linecap="round" />
</g>
<g transform="matrix(1 0 0 1 115.4 149.71)" id="m7Th7MZ6ZHahsT8h-e6PZ"  >
<path style="stroke: none; stroke-width: 1; stroke-dasharray: none; stroke-linecap: butt; stroke-dashoffset: 0; stroke-linejoin: miter; stroke-miterlimit: 4; fill: rgb(255,255,255); fill-rule: nonzero; opacity: 1;" vector-effect="non-scaling-stroke"  transform=" translate(-121.4, -155.71)" d="M 155.711 131.959 C 152.324 131.959 148.978 132.476 145.75 133.484 C 140.965 120.293 128.307 110.84500000000001 113.48400000000001 110.84500000000001 C 99.33000000000001 110.84500000000001 86.796 119.60500000000002 81.65700000000001 132.388 C 65.31300000000002 135.002 52.783000000000015 149.20000000000002 52.783000000000015 166.268 C 52.783000000000015 185.186 68.17500000000001 200.577 87.09200000000001 200.577 L 155.711 200.577 C 174.62900000000002 200.577 190.02 185.185 190.02 166.268 C 190.02 147.351 174.629 131.959 155.711 131.959 z M 155.711 184.743 L 87.093 184.743 C 76.90700000000001 184.743 68.619 176.45499999999998 68.619 166.269 C 68.619 156.572 76.127 148.596 85.654 147.851 L 93.352 151.7 L 95.385 141.535 C 97.10600000000001 132.927 104.718 126.681 113.48400000000001 126.681 C 123.67000000000002 126.681 131.958 134.969 131.958 145.155 L 131.958 160.946 L 144.578 151.632 C 148.028 149.086 151.773 147.796 155.711 147.796 C 165.89700000000002 147.796 174.185 156.084 174.185 166.26999999999998 C 174.185 176.45599999999996 165.898 184.743 155.711 184.743 z" stroke-linecap="round" />
</g>
<g transform="matrix(1 0 0 1 294.89 331.8)" id="sFTWN3bb0EXYJt3y3v8kP"  >
<path style="stroke: none; stroke-width: 1; stroke-dasharray: none; stroke-linecap: butt; stroke-dashoffset: 0; stroke-linejoin: miter; stroke-miterlimit: 4; fill: rgb(255,255,255); fill-rule: nonzero; opacity: 1;" vector-effect="non-scaling-stroke"  transform=" translate(-7.92, -95.96)" d="M 0 191.924 L 0 0 L 15.835 0 L 15.835 191.924 z" stroke-linecap="round" />
</g>
<g transform="matrix(1 0 0 1 421.57 315.94)" id="A59svZi7ipFUX0IPr54b7"  >
<path style="stroke: none; stroke-width: 1; stroke-dasharray: none; stroke-linecap: butt; stroke-dashoffset: 0; stroke-linejoin: miter; stroke-miterlimit: 4; fill: rgb(255,255,255); fill-rule: nonzero; opacity: 1;" vector-effect="non-scaling-stroke"  transform=" translate(-7.92, -53.44)" d="M 0 106.882 L 0 0 L 15.836 0 L 15.836 106.882 z" stroke-linecap="round" />
</g>
<g transform="matrix(1 0 0 1 426.82 102.21)" id="HwWJ49aGShGZEWpsiUpPQ"  >
<path style="stroke: none; stroke-width: 1; stroke-dasharray: none; stroke-linecap: butt; stroke-dashoffset: 0; stroke-linejoin: miter; stroke-miterlimit: 4; fill: rgb(255,255,255); fill-rule: nonzero; opacity: 1;" vector-effect="non-scaling-stroke"  transform=" translate(-18.47, -7.92)" d="M 0 15.835 L 0 0 L 36.948 0 L 36.948 15.835 z" stroke-linecap="round" />
</g>
<g transform="matrix(1 0 0 1 453.22 139.15)" id="0rfsjUcywn2v_-dj_aUA-"  >
<path style="stroke: none; stroke-width: 1; stroke-dasharray: none; stroke-linecap: butt; stroke-dashoffset: 0; stroke-linejoin: miter; stroke-miterlimit: 4; fill: rgb(255,255,255); fill-rule: nonzero; opacity: 1;" vector-effect="non-scaling-stroke"  transform=" translate(-18.47, -7.92)" d="M 0 15.835 L 0 0 L 36.948 0 L 36.948 15.835 z" stroke-linecap="round" />
</g>
<g transform="matrix(1 0 0 1 52.06 96.93)" id="23a8-EWsLtW1ZdVVnQB9r"  >
<path style="stroke: none; stroke-width: 1; stroke-dasharray: none; stroke-linecap: butt; stroke-dashoffset: 0; stroke-linejoin: miter; stroke-miterlimit: 4; fill: rgb(255,255,255); fill-rule: nonzero; opacity: 1;" vector-effect="non-scaling-stroke"  transform=" translate(-18.47, -7.92)" d="M 0 15.835 L 0 0 L 36.948 0 L 36.948 15.835 z" stroke-linecap="round" />
</g>
<g transform="matrix(1 0 0 1 210.41 107.48)" id="Id-9t6gUMTGYcBlS3ekOd"  >
<path style="stroke: none; stroke-width: 1; stroke-dasharray: none; stroke-linecap: butt; stroke-dashoffset: 0; stroke-linejoin: miter; stroke-miterlimit: 4; fill: rgb(255,255,255); fill-rule: nonzero; opacity: 1;" vector-effect="non-scaling-stroke"  transform=" translate(-18.47, -7.92)" d="M 0 15.835 L 0 0 L 36.948 0 L 36.948 15.835 z" stroke-linecap="round" />
</g>
<g transform="matrix(1 0 0 1 52.06 276.39)" id="SgrV8wSQVeEgUs2a7KENf"  >
<path style="stroke: none; stroke-width: 1; stroke-dasharray: none; stroke-linecap: butt; stroke-dashoffset: 0; stroke-linejoin: miter; stroke-miterlimit: 4; fill: rgb(255,255,255); fill-rule: nonzero; opacity: 1;" vector-effect="non-scaling-stroke"  transform=" translate(-18.47, -7.92)" d="M 0 15.835 L 0 0 L 36.948 0 L 36.948 15.835 z" stroke-linecap="round" />
</g>
<g transform="matrix(1 0 0 1 104.84 234.16)" id="6XyyH7LNP7a1ZdWiT5DD6"  >
<path style="stroke: none; stroke-width: 1; stroke-dasharray: none; stroke-linecap: butt; stroke-dashoffset: 0; stroke-linejoin: miter; stroke-miterlimit: 4; fill: rgb(255,255,255); fill-rule: nonzero; opacity: 1;" vector-effect="non-scaling-stroke"  transform=" translate(-18.47, -7.92)" d="M 0 15.835 L 0 0 L 36.948 0 L 36.948 15.835 z" stroke-linecap="round" />
</g>
<g transform="matrix(1 0 0 1 400.43 170.82)" id="JyZkJ4VWhGGmNVnYmiA2F"  >
<path style="stroke: none; stroke-width: 1; stroke-dasharray: none; stroke-linecap: butt; stroke-dashoffset: 0; stroke-linejoin: miter; stroke-miterlimit: 4; fill: rgb(255,255,255); fill-rule: nonzero; opacity: 1;" vector-effect="non-scaling-stroke"  transform=" translate(-18.47, -7.92)" d="M 0 15.835 L 0 0 L 36.948 0 L 36.948 15.835 z" stroke-linecap="round" />
</g>
</svg>