<?xml version="1.0" encoding="UTF-8" standalone="no" ?>
<!DOCTYPE svg PUBLIC "-//W3C//DTD SVG 1.1//EN" "http://www.w3.org/Graphics/SVG/1.1/DTD/svg11.dtd">
<svg xmlns="http://www.w3.org/2000/svg" version="1.1" width="432" height="432" viewBox="0 0 1080 1080"
	 xml:space="preserve">
<desc>Created with Fabric.js 3.6.3</desc>
<defs>
</defs>
<g transform="matrix(2.17 0 0 2.17 540.22 540.22)"  >
<g style=""   >
		<g transform="matrix(0.99 0 0 0.99 0.56 40.4)"  >
<path style="stroke: none; stroke-width: 1; stroke-dasharray: none; stroke-linecap: butt; stroke-dashoffset: 0; stroke-linejoin: miter; stroke-miterlimit: 4; fill: rgb(255,255,255); fill-rule: nonzero; opacity: 1;"  transform=" translate(-256.56, -296.65)" d="m 256 92.3 c -74.2 0 -127.8 55.3 -136.3 114.7 c -5.3 39.6 7.5 78.2 34.1 107.4 c 23.4 25 36.2 58.4 36.2 92.8 l -0.1 54.2 c 0 21.9 18.1 39.6 40.5 39.6 l 52.2 0 c 22.4 0 40.5 -17.7 40.5 -39.6 l 0.1 -54.2 c 0 -35.4 11.7 -67.8 34.1 -90.7 c 24.5 -25 37.3 -57.3 37.3 -90.7 c -0.1 -74.1 -63 -133.5 -138.6 -133.5 z m 46.8 369.1 c 0 10.4 -8.5 18.8 -19.2 18.8 l -52.2 0 c -10.7 0 -19.2 -8.3 -19.2 -18.8 l 0 -24 l 90.5 0 l 0 24 l 0.1 0 z m 39.6 -159.5 c -26.6 27.1 -40.5 64.6 -40.5 105.3 l 0 9.4 l -90.5 0 l 0 -9.4 c 0 -38.6 -16 -77.1 -42.6 -106.3 c -23.4 -25 -33 -57.3 -28.8 -90.7 c 7.5 -50 54 -97 116.1 -97 c 65 0 117.2 51.1 117.2 112.6 c 0 28.1 -10.7 55.2 -30.9 76.1 z" stroke-linecap="round" />
</g>
		<g transform="matrix(0.99 0 0 0.99 -0.05 -218.63)"  >
<rect style="stroke: none; stroke-width: 1; stroke-dasharray: none; stroke-linecap: butt; stroke-dashoffset: 0; stroke-linejoin: miter; stroke-miterlimit: 4; fill: rgb(255,255,255); fill-rule: nonzero; opacity: 1;"  x="-10.65" y="-25" rx="0" ry="0" width="21.3" height="50" />
</g>
		<g transform="matrix(0.99 0 0 0.99 153.83 -157.71)"  >
<polygon style="stroke: none; stroke-width: 1; stroke-dasharray: none; stroke-linecap: butt; stroke-dashoffset: 0; stroke-linejoin: miter; stroke-miterlimit: 4; fill: rgb(255,255,255); fill-rule: nonzero; opacity: 1;"  points="-25.7,10.1 -10.8,25 25.7,-10.1 10.7,-25 " />
</g>
		<g transform="matrix(0.99 0 0 0.99 217.53 -9.29)"  >
<rect style="stroke: none; stroke-width: 1; stroke-dasharray: none; stroke-linecap: butt; stroke-dashoffset: 0; stroke-linejoin: miter; stroke-miterlimit: 4; fill: rgb(255,255,255); fill-rule: nonzero; opacity: 1;"  x="-26.1" y="-10.45" rx="0" ry="0" width="52.2" height="20.9" />
</g>
		<g transform="matrix(0.99 0 0 0.99 -217.53 -9.29)"  >
<rect style="stroke: none; stroke-width: 1; stroke-dasharray: none; stroke-linecap: butt; stroke-dashoffset: 0; stroke-linejoin: miter; stroke-miterlimit: 4; fill: rgb(255,255,255); fill-rule: nonzero; opacity: 1;"  x="-26.1" y="-10.45" rx="0" ry="0" width="52.2" height="20.9" />
</g>
		<g transform="matrix(0.99 0 0 0.99 -154.23 -157.81)"  >
<polygon style="stroke: none; stroke-width: 1; stroke-dasharray: none; stroke-linecap: butt; stroke-dashoffset: 0; stroke-linejoin: miter; stroke-miterlimit: 4; fill: rgb(255,255,255); fill-rule: nonzero; opacity: 1;"  points="-10.7,-25 -25.7,-10.1 10.8,25 25.7,10.1 " />
</g>
</g>
</g>
</svg>