<?xml version="1.0" encoding="UTF-8" standalone="no" ?>
<!DOCTYPE svg PUBLIC "-//W3C//DTD SVG 1.1//EN" "http://www.w3.org/Graphics/SVG/1.1/DTD/svg11.dtd">
<svg xmlns="http://www.w3.org/2000/svg" version="1.1" width="1080" height="1080" viewBox="236.5 236.5 27 27"
     xml:space="preserve">
<desc>Created with Fabric.js 4.6.0</desc>
<defs>
</defs>
<g transform="matrix(1 0 0 1 243 240.5)" id="Y6BYzpLaiBQ28ev8YA-RN"  >
<path style="stroke: none; stroke-width: 1; stroke-dasharray: none; stroke-linecap: butt; stroke-dashoffset: 0; stroke-linejoin: miter; stroke-miterlimit: 4; fill: rgb(255,255,255); fill-rule: nonzero; opacity: 1;" vector-effect="non-scaling-stroke"  transform=" translate(-9, -6.5)" d="M 15 10 L 15 3 L 4 3 C 3.4 3 3 3.4 3 4 L 3 10 L 10 10 L 15 10 z" stroke-linecap="round" />
</g>
<g transform="matrix(1 0 0 1 257 240.5)" id="4-V9zhZgxB14EomsgqgwZ"  >
<path style="stroke: none; stroke-width: 1; stroke-dasharray: none; stroke-linecap: butt; stroke-dashoffset: 0; stroke-linejoin: miter; stroke-miterlimit: 4; fill: rgb(255,255,255); fill-rule: nonzero; opacity: 1;" vector-effect="non-scaling-stroke"  transform=" translate(-23, -6.5)" d="M 22 10 L 29 10 L 29 4 C 29 3.4 28.6 3 28 3 L 17 3 L 17 10 L 22 10 z" stroke-linecap="round" />
</g>
<g transform="matrix(1 0 0 1 250 250)" id="nImrBqNQ6h7uQR9iAm3FP"  >
<path style="stroke: none; stroke-width: 1; stroke-dasharray: none; stroke-linecap: butt; stroke-dashoffset: 0; stroke-linejoin: miter; stroke-miterlimit: 4; fill: rgb(255,255,255); fill-rule: nonzero; opacity: 1;" vector-effect="non-scaling-stroke"  transform=" translate(-16, -16)" d="M 11 12 L 11 20 L 16 20 L 21 20 L 21 12 L 16 12 z" stroke-linecap="round" />
</g>
<g transform="matrix(1 0 0 1 240 250)" id="oNQ7zAFQhKaRyVcVFKUqd"  >
<path style="stroke: none; stroke-width: 1; stroke-dasharray: none; stroke-linecap: butt; stroke-dashoffset: 0; stroke-linejoin: miter; stroke-miterlimit: 4; fill: rgb(255,255,255); fill-rule: nonzero; opacity: 1;" vector-effect="non-scaling-stroke"  transform=" translate(-3, -4)" d="M 0 8 L 0 0 L 6 0 L 6 8 z" stroke-linecap="round" />
</g>
<g transform="matrix(1 0 0 1 260 250)" id="ecGMLK3fKM6R269RGdASH"  >
<path style="stroke: none; stroke-width: 1; stroke-dasharray: none; stroke-linecap: butt; stroke-dashoffset: 0; stroke-linejoin: miter; stroke-miterlimit: 4; fill: rgb(255,255,255); fill-rule: nonzero; opacity: 1;" vector-effect="non-scaling-stroke"  transform=" translate(-3, -4)" d="M 0 8 L 0 0 L 6 0 L 6 8 z" stroke-linecap="round" />
</g>
<g transform="matrix(1 0 0 1 243 259.5)" id="85pvhkFUh9JihYEFyXnHZ"  >
<path style="stroke: none; stroke-width: 1; stroke-dasharray: none; stroke-linecap: butt; stroke-dashoffset: 0; stroke-linejoin: miter; stroke-miterlimit: 4; fill: rgb(255,255,255); fill-rule: nonzero; opacity: 1;" vector-effect="non-scaling-stroke"  transform=" translate(-9, -25.5)" d="M 10 22 L 3 22 L 3 28 C 3 28.6 3.4 29 4 29 L 15 29 L 15 22 L 10 22 z" stroke-linecap="round" />
</g>
<g transform="matrix(1 0 0 1 257 259.5)" id="o5muz7WhWt9o1Akf-JC3_"  >
<path style="stroke: none; stroke-width: 1; stroke-dasharray: none; stroke-linecap: butt; stroke-dashoffset: 0; stroke-linejoin: miter; stroke-miterlimit: 4; fill: rgb(255,255,255); fill-rule: nonzero; opacity: 1;" vector-effect="non-scaling-stroke"  transform=" translate(-23, -25.5)" d="M 17 22 L 17 29 L 28 29 C 28.6 29 29 28.6 29 28 L 29 22 L 22 22 L 17 22 z" stroke-linecap="round" />
</g>
</svg>